# xmcd
#
# Track frame offsets: 
#        151
#        17768
#        36103
#        54730
#        73217
#        94622
#        113289
#        133876
#        151767
#        168530
#
# Disc length: 2495 seconds
#
# Revision: 0
# Processed by: cddbd v1.5.1PL2 Copyright (c) Steve Scherf et al.
# Submitted via: ExactAudioCopy v0.95b4
#
DISCID=7e09bd0a
DTITLE=ไกรศร  เรืองศรี - อดีตเคยเหล่อ
DYEAR=2006
DGENRE=Country
TTITLE0=อดีตเคยหล่อ
TTITLE1=เขาสำน้องผัวป๋า
TTITLE2=นั่งซอมกรุงเทพฯ 
TTITLE3=รักเขาเพราะการ์ดโฟน
TTITLE4=ไกรศรมาแล้ว
TTITLE5=ขอเป็นคนดี
TTITLE6=เอิ้นหาน้องเขียว
TTITLE7=ถอนหมั้นให้เพื่อน
TTITLE8=สงสารแม่
TTITLE9=ลูกสาวหมู่ฮัก
EXTD=
EXTT0=
EXTT1=
EXTT2=
EXTT3=
EXTT4=
EXTT5=
EXTT6=
EXTT7=
EXTT8=
EXTT9=
PLAYORDER=
